Coordinates
version=1
nRows=9
nColumns=24
inDegrees=yes

Units are S.I. units (second, meters, Newtons, ...)
Angles are in degrees.

endheader
time	pelvis_tilt	pelvis_list	pelvis_rotation	pelvis_tx	pelvis_ty	pelvis_tz	hip_flexion_r	hip_adduction_r	hip_rotation_r	knee_angle_r	ankle_angle_r	subtalar_angle_r	mtp_angle_r	hip_flexion_l	hip_adduction_l	hip_rotation_l	knee_angle_l	ankle_angle_l	subtalar_angle_l	mtp_angle_l	lumbar_extension	lumbar_bending	lumbar_rotation
      0.52900000	     -2.76422684	      7.83719910	     -2.31288151	     -0.85241963	      0.98061650	      0.29619380	     28.24903487	     -6.17285459	     -2.45285608	     -0.79548950	      0.54048644	     -1.70940581	      6.48752637	    -16.17216848	     13.42482750	      6.97865966	      0.80146125	     10.11874929	     -8.24667625	     -1.48083750	     -9.84040958	     -0.19393901	     -9.15496784
      0.53316667	     -2.80185214	      7.74165270	     -2.34079910	     -0.84677771	      0.97973061	      0.29636657	     28.27548783	     -5.99912960	     -2.16219375	     -0.94506121	      0.37360834	     -1.67986387	      6.48973398	    -16.31046028	     13.33317024	      7.04080856	      0.43794096	     10.30905209	     -8.29567084	     -1.47004851	     -9.79184368	     -0.04668579	     -9.12945241
      0.53733333	     -2.86980557	      7.62173848	     -2.36800009	     -0.84109626	      0.97887490	      0.29660755	     28.28817911	     -5.78967350	     -1.70002003	     -1.07138020	     -0.02968020	     -2.10453572	      6.50417755	    -16.36586379	     13.21485626	      6.95010178	     -0.02101259	     10.57249694	     -8.06336455	     -1.41673624	     -9.69949501	      0.13297255	     -9.04202324
      0.54150000	     -2.91370389	      7.48107099	     -2.40600045	     -0.83541300	      0.97807531	      0.29685146	     28.30720680	     -5.56292134	     -1.27267110	     -1.32936056	     -0.38366034	     -2.41134117	      6.53200401	    -16.44168037	     13.08148479	      6.88639183	     -0.49870314	     10.82175534	     -7.91326778	     -1.34661049	     -9.64468296	      0.33597870	     -8.96973280
      0.54566667	     -2.97973435	      7.32723158	     -2.45172450	     -0.82968748	      0.97728927	      0.29711085	     28.36358691	     -5.31879496	     -0.82966073	     -1.67580519	     -0.78295395	     -2.77506186	      6.56388784	    -16.47929593	     12.93923433	      6.82032226	     -0.99886417	     11.03413718	     -7.81198841	     -1.26430081	     -9.55681882	      0.55232356	     -8.88514571
      0.54983333	     -3.04433192	      7.14838635	     -2.50083115	     -0.82395092	      0.97654323	      0.29739678	     28.42155902	     -5.04730625	     -0.35499290	     -2.08392766	     -1.22977889	     -3.21128692	      6.59672468	    -16.50634279	     12.77346559	      6.75668465	     -1.52835171	     11.23454157	     -7.73042732	     -1.17437950	     -9.48507151	      0.79786502	     -8.79580737
      0.55400000	     -3.09230747	      6.96543972	     -2.56334014	     -0.81817750	      0.97585489	      0.29770505	     28.47794662	     -4.76749193	      0.11931642	     -2.56555526	     -1.73858302	     -3.73228930	      6.63709510	    -16.53265179	     12.61022992	      6.66111482	     -2.08828114	     11.41119735	     -7.63781320	     -1.05624863	     -9.41080778	      1.04822826	     -8.69330507
      0.55816667	     -3.15520619	      6.76836300	     -2.62854017	     -0.81238868	      0.97518630	      0.29803862	     28.56239645	     -4.46931845	      0.59498524	     -3.11308173	     -2.26574191	     -4.28136048	      6.67785294	    -16.52691376	     12.43500040	      6.57058347	     -2.68250172	     11.55925879	     -7.58154959	     -0.92437558	     -9.32481182	      1.31708862	     -8.58460889
      0.56233333	     -3.21480176	      6.55306634	     -2.70060286	     -0.80657432	      0.97455845	      0.29839034	     28.65438872	     -4.14931428	      1.06563360	     -3.71884626	     -2.81561106	     -4.86375775	      6.71781879	    -16.51332941	     12.24580814	      6.47429638	     -3.29945772	     11.68067328	     -7.54432054	     -0.77538945	     -9.25613750	      1.59923718	     -8.46975900
